<svg width="18" height="18" viewBox="0 0 18 18" fill="none" xmlns="http://www.w3.org/2000/svg">
<path fill-rule="evenodd" clip-rule="evenodd" d="M12.8761 4.39175H13.0558C15.4172 4.39175 17.3337 6.26675 17.3337 8.56675V13.1667C17.3337 15.4668 15.4172 17.3334 13.0558 17.3334H4.94488C2.58349 17.3334 0.666992 15.4668 0.666992 13.1667V8.56675C0.666992 6.26675 2.58349 4.39175 4.94488 4.39175H5.12456C5.14167 3.39175 5.54379 2.45842 6.27103 1.75841C7.00683 1.05008 7.94797 0.691748 9.00888 0.666748C11.1307 0.666748 12.8504 2.33341 12.8761 4.39175ZM7.1694 2.65008C6.69028 3.11675 6.42505 3.73341 6.40794 4.39175H11.5927C11.5671 3.02508 10.4206 1.91675 9.00889 1.91675C8.3501 1.91675 7.66564 2.17508 7.1694 2.65008ZM12.2515 7.60008C12.6108 7.60008 12.8932 7.31675 12.8932 6.97508V6.00841C12.8932 5.66675 12.6108 5.38341 12.2515 5.38341C11.9007 5.38341 11.6098 5.66675 11.6098 6.00841V6.97508C11.6098 7.31675 11.9007 7.60008 12.2515 7.60008ZM6.31379 6.97508C6.31379 7.31675 6.03145 7.60008 5.6721 7.60008C5.32132 7.60008 5.03042 7.31675 5.03042 6.97508V6.00841C5.03042 5.66675 5.32132 5.38341 5.6721 5.38341C6.03145 5.38341 6.31379 5.66675 6.31379 6.00841V6.97508Z" fill="white"/>
</svg>
