<svg width="32" height="32" viewBox="0 0 32 32" fill="none" xmlns="http://www.w3.org/2000/svg">
<path fill-rule="evenodd" clip-rule="evenodd" d="M18.8287 14.9776H22.5192C23.0787 14.9776 23.5184 14.515 23.5184 13.9571C23.5184 13.3856 23.0787 12.9366 22.5192 12.9366H18.8287C18.2692 12.9366 17.8295 13.3856 17.8295 13.9571C17.8295 14.515 18.2692 14.9776 18.8287 14.9776ZM26.9024 7.90341C27.7151 7.90341 28.248 8.18915 28.781 8.81506C29.3139 9.44097 29.4071 10.339 29.2872 11.1541L28.0216 20.0801C27.7817 21.7959 26.3429 23.06 24.6508 23.06H10.1155C8.34356 23.06 6.87803 21.6735 6.73148 19.8774L5.50577 5.04462L3.494 4.69084C2.96109 4.5956 2.58804 4.06493 2.6813 3.52066C2.77456 2.96414 3.29416 2.5954 3.8404 2.6784L7.01792 3.16688C7.4709 3.24988 7.80398 3.62951 7.84395 4.09214L8.09708 7.14007C8.13705 7.57684 8.48345 7.90341 8.90978 7.90341H26.9024ZM9.90183 25.2105C8.78271 25.2105 7.87675 26.1358 7.87675 27.2788C7.87675 28.4081 8.78271 29.3334 9.90183 29.3334C11.0076 29.3334 11.9136 28.4081 11.9136 27.2788C11.9136 26.1358 11.0076 25.2105 9.90183 25.2105ZM24.8904 25.2105C23.7713 25.2105 22.8654 26.1358 22.8654 27.2788C22.8654 28.4081 23.7713 29.3334 24.8904 29.3334C25.9963 29.3334 26.9022 28.4081 26.9022 27.2788C26.9022 26.1358 25.9963 25.2105 24.8904 25.2105Z" fill="white"/>
</svg>
