<svg width="60" height="60" viewBox="0 0 60 60" fill="none" xmlns="http://www.w3.org/2000/svg">
<rect width="60" height="60" rx="18" fill="#5142FC"/>
<rect opacity="0.4" x="28.1113" y="25.2778" width="12.2778" height="13.2222" fill="white"/>
<path d="M41.333 21.4998H29.9997L28.0022 19.5023C27.4638 18.964 26.7413 18.6665 25.9905 18.6665H18.6663C17.0938 18.6665 15.8472 19.9273 15.8472 21.4998L15.833 38.4998C15.833 40.0723 17.0938 41.3332 18.6663 41.3332H41.333C42.8914 41.3332 44.1664 40.0582 44.1664 38.4998V24.3332C44.1664 22.7748 42.8914 21.4998 41.333 21.4998ZM38.4997 32.8332H35.6663V35.6665C35.6663 36.4457 35.0288 37.0832 34.2497 37.0832C33.4705 37.0832 32.833 36.4457 32.833 35.6665V32.8332H29.9997C29.2205 32.8332 28.583 32.1957 28.583 31.4165C28.583 30.6373 29.2205 29.9998 29.9997 29.9998H32.833V27.1665C32.833 26.3873 33.4705 25.7498 34.2497 25.7498C35.0288 25.7498 35.6663 26.3873 35.6663 27.1665V29.9998H38.4997C39.2789 29.9998 39.9164 30.6373 39.9164 31.4165C39.9164 32.1957 39.2789 32.8332 38.4997 32.8332Z" fill="white"/>
</svg>
