<svg width="16" height="16" viewBox="0 0 16 16" fill="none" xmlns="http://www.w3.org/2000/svg">
<path d="M0.667969 8.04224C0.668744 11.342 3.05357 14.1516 6.29264 14.6688V9.98076H4.6013V8.04224H6.29464V6.56654C6.21894 5.86729 6.45632 5.17039 6.9424 4.66486C7.42847 4.15933 8.11287 3.89755 8.80997 3.95053C9.31033 3.95866 9.80943 4.0035 10.3033 4.08469V5.73411H9.46064C9.17053 5.69588 8.87887 5.79228 8.66782 5.99616C8.45676 6.20004 8.34915 6.48933 8.3753 6.78253V8.04224H10.2226L9.9273 9.98143H8.3753V14.6688C11.8783 14.1118 14.3347 10.8929 13.965 7.34401C13.5953 3.79516 10.5288 1.15874 6.98719 1.34471C3.44554 1.53068 0.668532 4.47394 0.667969 8.04224Z" fill="#EBEBEB"/>
</svg>
