<svg width="32" height="32" viewBox="0 0 32 32" fill="none" xmlns="http://www.w3.org/2000/svg">
<path d="M28.4925 14.0826C27.2192 20.6106 20.5272 25.1958 17.7099 26.8652C17.1819 27.1758 16.5912 27.3333 16.0006 27.3333C15.4099 27.3333 14.8192 27.1772 14.2912 26.8652C11.4725 25.1958 4.78057 20.6119 3.50724 14.0826C2.97524 11.3533 3.69924 8.45976 5.44458 6.33976C7.04191 4.4011 9.2619 3.33325 11.6966 3.33325C13.2286 3.33325 14.7072 3.72124 16.0006 4.45858C17.2939 3.72124 18.7726 3.33325 20.3046 3.33325C22.7392 3.33325 24.9592 4.4011 26.5566 6.33976C28.3006 8.45976 29.0245 11.3533 28.4925 14.0826Z" fill="white"/>
</svg>
