<svg width="20" height="20" viewBox="0 0 20 20" fill="none" xmlns="http://www.w3.org/2000/svg">
<path d="M18.0895 16.9109L14.307 13.1283C15.2595 11.9217 15.8337 10.4026 15.8337 8.75008C15.8337 4.84425 12.6562 1.66675 8.75033 1.66675C4.84449 1.66675 1.66699 4.84425 1.66699 8.75008C1.66699 12.6559 4.84449 15.8334 8.75033 15.8334C10.4037 15.8334 11.922 15.2601 13.1287 14.3067L16.9112 18.0893C17.0737 18.2518 17.287 18.3334 17.5003 18.3334C17.7137 18.3334 17.927 18.2518 18.0895 18.0893C18.4153 17.7634 18.4153 17.2367 18.0895 16.9109ZM3.33366 8.75008C3.33366 5.76342 5.76366 3.33342 8.75033 3.33342C11.737 3.33342 14.167 5.76342 14.167 8.75008C14.167 11.7367 11.737 14.1667 8.75033 14.1667C5.76366 14.1667 3.33366 11.7367 3.33366 8.75008Z" fill="white"/>
</svg>
