<svg width="32" height="32" viewBox="0 0 32 32" fill="none" xmlns="http://www.w3.org/2000/svg">
<path d="M15.9997 3.33325C9.01301 3.33325 3.33301 9.01325 3.33301 15.9999C3.33301 22.9866 9.01301 28.6666 15.9997 28.6666C22.9863 28.6666 28.6663 22.9866 28.6663 15.9999C28.6663 9.01325 22.9863 3.33325 15.9997 3.33325ZM17.333 22.6666H14.6663C13.933 22.6666 13.333 22.0666 13.333 21.3333C13.333 20.5999 13.933 19.9999 14.6663 19.9999H17.333C18.0663 19.9999 18.6663 20.5999 18.6663 21.3333C18.6663 22.0666 18.0663 22.6666 17.333 22.6666ZM19.333 17.3333H12.6663C11.933 17.3333 11.333 16.7333 11.333 15.9999C11.333 15.2666 11.933 14.6666 12.6663 14.6666H19.333C20.0663 14.6666 20.6663 15.2666 20.6663 15.9999C20.6663 16.7333 20.0663 17.3333 19.333 17.3333ZM21.333 11.9999H10.6663C9.93301 11.9999 9.33301 11.3999 9.33301 10.6666C9.33301 9.93325 9.93301 9.33325 10.6663 9.33325H21.333C22.0663 9.33325 22.6663 9.93325 22.6663 10.6666C22.6663 11.3999 22.0663 11.9999 21.333 11.9999Z" fill="white"/>
</svg>
