<svg width="16" height="16" viewBox="0 0 16 16" fill="none" xmlns="http://www.w3.org/2000/svg">
<path d="M13.0958 4.12052C13.6672 3.76307 14.0947 3.20022 14.2986 2.53706C13.7616 2.87043 13.1742 3.10527 12.5616 3.23141C11.7123 2.29129 10.3667 2.06251 9.27666 2.6729C8.18662 3.2833 7.62201 4.58175 7.89833 5.84272C5.69901 5.72718 3.64997 4.64006 2.26108 2.85189C1.53624 4.16016 1.90665 5.83257 3.10756 6.6738C2.6733 6.65919 2.24866 6.53616 1.86907 6.31496C1.86907 6.32696 1.86907 6.33897 1.86907 6.35098C1.86932 7.71376 2.78718 8.88763 4.06367 9.15771C3.66087 9.27239 3.23836 9.28927 2.82837 9.20707C3.18736 10.3725 4.21381 11.1709 5.38375 11.1947C4.41478 11.9906 3.21813 12.4221 1.98635 12.42C1.76802 12.4203 1.54986 12.4072 1.33301 12.3807C2.58385 13.2218 4.03968 13.6682 5.52653 13.6666C7.59508 13.6815 9.58302 12.8282 11.0457 11.2975C12.5083 9.76677 13.3237 7.68648 13.3093 5.52189C13.3093 5.39783 13.3065 5.27444 13.301 5.15171C13.8367 4.74657 14.2991 4.24469 14.6663 3.66963C14.1673 3.90112 13.6379 4.05311 13.0958 4.12052Z" fill="#EBEBEB"/>
</svg>
