<svg width="16" height="12" viewBox="0 0 16 12" fill="none" xmlns="http://www.w3.org/2000/svg">
<path fill-rule="evenodd" clip-rule="evenodd" d="M7.99998 4.20335C6.93597 4.20335 6.07117 5.00956 6.07117 6.00055C6.07117 6.9908 6.93597 7.79627 7.99998 7.79627C9.06399 7.79627 9.9296 6.9908 9.9296 6.00055C9.9296 5.00956 9.06399 4.20335 7.99998 4.20335ZM7.99992 8.91395C6.2743 8.91395 4.87109 7.60702 4.87109 6.00056C4.87109 4.39336 6.2743 3.08569 7.99992 3.08569C9.72553 3.08569 11.1295 4.39336 11.1295 6.00056C11.1295 7.60702 9.72553 8.91395 7.99992 8.91395Z" fill="white"/>
<mask id="mask0_605_1738" style="mask-type:luminance" maskUnits="userSpaceOnUse" x="0" y="0" width="16" height="13">
<path fill-rule="evenodd" clip-rule="evenodd" d="M0 0.000244141H16V12.0002H0V0.000244141Z" fill="white"/>
</mask>
<g mask="url(#mask0_605_1738)">
<path fill-rule="evenodd" clip-rule="evenodd" d="M1.2558 6.00006C2.74381 9.06172 5.25023 10.882 7.99985 10.8828C10.7495 10.882 13.2559 9.06172 14.7439 6.00006C13.2559 2.93915 10.7495 1.11884 7.99985 1.1181C5.25103 1.11884 2.74381 2.93915 1.2558 6.00006ZM8.00146 12.0003H7.99826H7.99746C4.68864 11.9981 1.71741 9.83801 0.0486004 6.22049C-0.0162001 6.07967 -0.0162001 5.92022 0.0486004 5.77939C1.71741 2.16262 4.68944 0.00255002 7.99746 0.000314692C7.99906 -0.000430418 7.99906 -0.000430418 7.99986 0.000314692C8.00146 -0.000430418 8.00146 -0.000430418 8.00226 0.000314692C11.3111 0.00255002 14.2823 2.16262 15.9511 5.77939C16.0167 5.92022 16.0167 6.07967 15.9511 6.22049C14.2831 9.83801 11.3111 11.9981 8.00226 12.0003H8.00146Z" fill="white"/>
</g>
</svg>
